<svg xmlns="http://www.w3.org/2000/svg" viewBox="0 0 30 30">
  
<g transform="matrix(1.25,0,0,1.25,0,0)"><g>
    <path d="M24,2.5a1.25,1.25,0,0,0-1.25-1.25H20.44a1.74,1.74,0,0,0-1.73,1.53L18.42,5a.24.24,0,0,1-.24.22H2.75A2.72,2.72,0,0,0,.54,6.37,2.71,2.71,0,0,0,.13,8.83l2.06,6.49a2.74,2.74,0,0,0,2.62,1.93H17.14a2.24,2.24,0,0,0,2.23-1.91l.71-4.65a1.25,1.25,0,0,0-1-1.43,1.27,1.27,0,0,0-1.43,1.05L17,14.54a.25.25,0,0,1-.25.21H4.81a.26.26,0,0,1-.24-.18L2.51,8.07a.25.25,0,0,1,0-.22.27.27,0,0,1,.2-.1H18.62a2.25,2.25,0,0,0,2.23-2L21.08,4a.24.24,0,0,1,.24-.22h1.43A1.25,1.25,0,0,0,24,2.5Z" style="fill: #000000"></path>
    <circle cx="6.75" cy="20.5" r="2.25" style="fill: #000000"></circle>
    <circle cx="16.5" cy="20.5" r="2.25" style="fill: #000000"></circle>
  </g></g></svg>